<svg xmlns="http://www.w3.org/2000/svg" viewBox="0 0 1025 576"><path d="M0 0h1025v576H0V0z"/><path d="M354.7568359375 219.3120117188c7.84083098 6.42874904 15.15165454 13.89493624 20.24316406 22.68798828.67466309-.0908789 1.34932617-.18175781 2.0444336-.27539062 3.10933261-.41493233 6.21989755-.81982129 9.3305664-1.22460938 1.06089844-.14308594 2.12179688-.28617187 3.21484375-.43359375 1.05058594-.13535156 2.10117188-.27070312 3.18359375-.41015625.95310059-.12568359 1.90620117-.25136719 2.8881836-.38085937 4.4320195-.36560758 8.89130506-.27539063 13.3383789-.27539063v131h-132c0-13.54744525 0-13.54744525.9375-19.5625.17402344-1.15628906.34804688-2.31257812.52734375-3.50390625.53515625-2.93359375.53515625-2.93359375 1.53515625-5.93359375-.71414062-.25394531-1.42828125-.50789062-2.1640625-.76953125-15.38830737-6.67674493-25.29877206-20.55607464-31.7734375-35.46484375-6.94622387-18.08061214-6.87014347-36.90139665.1875-54.953125 6.97015893-15.5235103 17.7230511-27.71271396 32.75-35.8125.87140625-.47050781 1.7428125-.94101562 2.640625-1.42578125 23.12929331-11.46320238 52.39213896-8.73902232 73.11621094 6.73779297z" fill="#fe6f7e"/><path d="M312 206v36l14 3c5.40444911 3.3027189 9.62028108 6.49146582 14 11-1.33591588 4.00774764-3.94961701 5.25247615-7.3125 7.5-22.6843564 15.73269879-39.85932098 38.39008148-47.8984375 64.94921875C283.99028607 331.03140196 283.00329384 333.49176541 282 336c-.36871088 1.65919896-.71281674 3.3247643-1 5-8.96456939-1.01795477-18.41899612-10.1925533-24-17-12.271957-16.9837496-18.39600201-36.62426886-15.50390625-57.59765625 3.8146496-19.46117848 13.51321025-35.60108759 29.3359375-47.5390625C273.4996224 217.10396863 276.18760338 215.51593055 279 214c.87140625-.47050781 1.7428125-.94101563 2.640625-1.42578125C291.40724285 207.73374587 301.15040224 206 312 206z" fill="#9c40e7"/><path d="M340.98828125 258.171875C343 259 343 259 344.23046875 260.890625c.31582031.77859375.63164062 1.5571875.95703125 2.359375.32355469.76828125.64710938 1.5365625.98046875 2.328125C349.74886694 276.00139671 348.61569682 286.14138625 344 296c-4.37092031 8.25618281-11.75731165 14.2163554-20.4921875 17.32421875C319.66478805 314.35980011 315.96957046 314.74389868 312 315c.01160156.77601563.02320313 1.55203125.03515625 2.3515625C312.10418029 325.61472608 311.69121931 333.76708427 311 342c-.73863281.1134375-1.47726562.226875-2.23828125.34375-7.79032813 1.85116708-13.90297208 8.42006358-19.5 13.80078125C286.98273188 358.01416642 285.79929075 358.41609886 283 359c-1.72618137 1.15910377-1.72618137 1.15910377-3.25 2.5625L277 364c.23844259-8.19050285.9816648-15.96009376 2.875-23.9375.16145508-.68441162.32291016-1.36882324.48925781-2.07397461C288.55748964 305.14798404 309.40667669 277.96383576 337 259c2-1 2-1 3.98828125-.828125z" fill="#fd9f54"/><path d="M408 307c.75430144 4.02535393 1.12262138 7.82037935 1.11352539 11.91357422-.00012085 1.15653076-.0002417 2.31306152-.00036621 3.50463867-.00511597 1.20003662-.01023193 2.40007324-.01550293 3.63647461-.00100708 1.1144751-.00201416 2.2289502-.00305176 3.37719727-.00521672 4.1477156-.01917796 8.29541649-.03210449 12.44311523L409 370h-78c2-4 2-4 3.9453125-4.828125.71929687-.13921875 1.43859375-.2784375 2.1796875-.421875L341 364l-1-3 5-1-1-3 2.375-.25c2.73373509-.47459068 2.73373509-.47459068 3.875-2.625.60080075-1.70226879 1.17915146-3.41245438 1.75-5.125 1.6796875-.78125 1.6796875-.78125 3.875-1.5 5.66967827-2.3345734 9.32259682-6.36702204 13.47265625-10.73828125 2.85542511-2.9731746 5.85451696-5.66186554 8.99609375-8.32421875 1.68198497-1.42093402 1.68198497-1.42093402 3.22265625-3.03515625C383 324 383 324 385.4375 322.5625c2.59289811-1.43415245 2.59289811-1.43415245 4.4140625-3.47265625 2.23195589-2.17108437 4.38392641-3.55773268 7.0859375-5.08984375 2.87070505-1.66822683 8.07712365-7 11.0625-7z" fill="#fe509a"/><path d="M335.203125 251.5c1.70123206 1.42015894 3.25943571 2.90561852 4.796875 4.5-1.33591588 4.00774764-3.94961701 5.25247615-7.3125 7.5-14.36998505 9.96627995-26.15432668 21.99172745-35.1171875 37.125-1.62639123 2.45981559-3.42129218 4.36552646-5.5703125 6.375-7.78761854-6.91803334-13.47482899-14.68204324-14.23828125-25.3203125-.22436821-11.50182313 1.78578473-19.65211206 9.265625-28.640625C300.95572513 238.64180491 320.03377716 239.84994086 335.203125 251.5z"/><path d="M724.8125 247.8671875c.721875.00257813 1.44375.00515625 2.1875.0078125.721875-.00257813 1.44375-.00515625 2.1875-.0078125C731 248 731 248 732 249c.09346915 1.65738443.11744977 3.31874644.11352539 4.97875977-.00007553 1.06102432-.00015106 2.12204864-.00022888 3.21522522-.00516129 1.15414901-.01032257 2.30829803-.01564026 3.49742126-.00141495 1.17497543-.0028299 2.34995087-.00428772 3.56053162-.00561861 3.77021277-.01817427 7.54036717-.03086853 11.31056213-.0050126 2.54882727-.00957592 5.09765547-.01367188 7.64648438C732.03777444 289.47267633 732.02101821 295.73633399 732 302h-8l-1-3-2.8125 2c-4.88415072 2.7895251-9.71098478 2.67938615-15.1875 2-5.21218383-1.83391653-9.35595017-4.87630532-11.9765625-9.85546875-2.72484297-6.58291502-2.8554309-12.6048421-.1328125-19.21875C695.47814342 269.43406793 699.36467854 266.74952234 704 264.625c6.78249813-1.41302044 10.90038152-.38036997 17 2.375.06058594-1.28777344.12117187-2.57554687.18359375-3.90234375.08438872-1.67839784.16903755-3.35678261.25390625-5.03515625.03931641-.85013672.07863281-1.70027344.11914062-2.57617188.04189454-.80888671.08378907-1.61777343.12695313-2.45117187.03665771-.74886475.07331543-1.49772949.11108398-2.26928711.28158905-2.4217997.58065909-2.72009641 3.01782227-2.89868164zM511 268l2-3c3.625-.1875 3.625-.1875 7 0 .02526648 7.52969652.04283141 15.0593822.05493164 22.58911133.00504206 2.56380624.0118755 5.12760958.02050781 7.69140625.01207119 3.67603263.01778997 7.3520274.0222168 11.02807617.00516129 1.15414902.01032257 2.30829803.01564026 3.49742126.00007553 1.06102433.00015106 2.12204865.00022888 3.21522522.00222061.9393187.00444122 1.87863739.00672913 2.84642029C520 318 520 318 519 319c-1.8125.1328125-1.8125.1328125-4 .125-.721875.00257813-1.44375.00515625-2.1875.0078125C511 319 511 319 510 318c-.23701239-2.85877909-.42219182-5.69883297-.5625-8.5625-.04318359-.80630859-.08636719-1.61261719-.13085938-2.44335938C509.20024738 304.99631195 509.09959112 302.9981793 509 301c-.71414063.32226562-1.42828125.64453125-2.1640625.9765625-5.0628896 1.82710341-10.77878241 2.02727947-15.9296875.3359375-5.44349857-2.86499925-9.4742843-7.19379756-11.34375-13.0625-1.25919742-6.26001005.29819915-12.05277694 3.1875-17.625 8.36307918-9.75692571 17.65539055-8.92230473 28.25-3.625z" fill="#fff"/><path d="M404.296875 238.98046875c.88526367.00281982 1.77052734.00563965 2.68261719.00854492.66676758.00362549 1.33353515.00725098 2.02050781.01098633.04943465 4.78717542.08573582 9.57420227.10986328 14.36157227.01005814 1.62860705.0237063 3.25719605.04101563 4.88574218.02425683 2.34078427.03560592 4.68132979.04443359 7.0222168.01032257.72822464.02064514 1.45644928.03128052 2.20674133C409.22742249 271.21275069 409.12883296 272.80675056 407 276c-2.171875.703125-2.171875.703125-4.75 1.25-4.82558056 1.29466796-6.92583733 2.96158649-9.60546875 7.12890625C390.16216201 286.8258973 387.32556094 287.21452673 384 288c-.05945801-.93513428-.05945801-.93513428-.12011719-1.88916016-1.1712309-19.7610697-1.1712309-19.7610697-7.50878906-38.35693359C375 245 375 245 375 243c9.81660165-2.2490485 19.21156614-4.06141376 29.296875-4.01953125z" fill="#fd965c"/><path d="M442 248l15.4375-.0625c1.60931396-.009104 3.21862793-.01820801 4.87670898-.02758789 1.25627198-.00249756 2.51254395-.00499512 3.80688477-.00756836 1.94024048-.00785522 1.94024048-.00785522 3.91967773-.01586914C473 248 473 248 474 249c.1328125 1.8125.1328125 1.8125.125 4 .00386719 1.0828125.00386719 1.0828125.0078125 2.1875C474 257 474 257 473 258c-1.56172745.08685603-3.12729344.10702219-4.69140625.09765625-.94423828-.00322266-1.88847656-.00644531-2.86132813-.00976563-.99322265-.0083789-1.98644531-.01675781-3.00976562-.02539062-.99708984-.00451172-1.99417969-.00902344-3.02148438-.01367188C456.94398513 258.03700023 454.47198528 258.01906415 452 258v18h19v9h-19v8c.63091553-.00523682 1.26183105-.01047363 1.91186523-.01586914 2.84186824-.02070912 5.68372065-.03377152 8.52563477-.04663086 1.48983398-.01256836 1.48983398-.01256836 3.00976562-.02539062.94423829-.00322266 1.88847657-.00644532 2.86132813-.00976563.87454834-.00523682 1.74909668-.01047363 2.65014648-.01586914C473 293 473 293 474 294v8h-32v-54zM765.75 265.125c5.16006014 2.97695778 8.67293857 6.99686192 10.25 12.875v7h-27c2.01151263 6.77489892 2.01151263 6.77489892 5 8 5.94391365.60278454 5.94391365.60278454 11.3125-1.5L767 290c4 0 4 0 5.8125 1.75C774 294 774 294 774.0625 296c-2.07527009 3.90639076-6.00573245 5.64774415-10.0625 7-7.15908529.70549952-13.07164517.31662715-19-4-4.37803667-4.49324816-6.28446601-9.05660136-6.375-15.3125.12251047-5.35442828 1.04922733-9.42393678 4.375-13.6875 6.80153204-6.19866897 13.96928317-7.50921505 22.75-4.875zM680 267c4.75755653 4.75755653 5.12527703 9.20324635 5.1328125 15.703125.00193359 1.59328125.00193359 1.59328125.00390625 3.21875-.00386719 1.09828125-.00773438 2.1965625-.01171875 3.328125.00580078 1.670625.00580078 1.670625.01171875 3.375-.00128906 1.05703125-.00257813 2.1140625-.00390625 3.203125-.00112793.9684082-.00225586 1.93681641-.00341797 2.93457031C685 301 685 301 684 302c-3.4375.1875-3.4375.1875-7 0l-2-2-1.875 1.5c-4.42218088 2.12264682-8.3005408 2.18700299-13.125 1.5-3.89009228-1.80611427-5.48981747-3.00181679-7.4375-6.8125-.67601072-3.83072742-.5885725-6.42523417.4375-10.1875 3.39198856-4.48939662 6.48417493-6.09576638 12-7 3.36733253.13784402 6.66778604.50385547 10 1-1.14083176-3.03292954-1.14083176-3.03292954-3-6-3.70602741-1.18386987-6.98008238-.97806336-10.8125-.5625-.97582031.10183594-1.95164062.20367187-2.95703125.30859375-.73605469.08378906-1.47210937.16757812-2.23046875.25390625l-2-7c8.88113746-3.60393984 17.42158472-4.97548086 26 0zM590.4239501953 247.8610534668c.75728394.00202423 1.51456787.00404846 2.2947998.00613403.77307496-.00095672 1.54614991-.00191345 2.34265137-.00289917 1.63757407-.00068173 3.27515082.00117211 4.91271973.00534058 2.51519811.00534838 5.03021764.00005483 7.54541015-.00634766 1.58723998.00066079 3.17447985.00194195 4.76171875.00390625 1.13592591-.00303634 1.13592591-.00303634 2.29479981-.00613403 5.30899888.02399522 5.30899888.02399522 6.42395019 1.13894653.1328125 1.8125.1328125 1.8125.125 4 .00386719 1.0828125.00386719 1.0828125.0078125 2.1875-.1328125 1.8125-.1328125 1.8125-1.1328125 2.8125-2.01964198.07244053-4.04167123.08377188-6.0625.0625-1.10472656-.00902343-2.20945312-.01804687-3.34765625-.02734375-.85464843-.01160156-1.70929687-.02320312-2.58984375-.03515625.00785523 1.94604126.00785523 1.94604126.01586915 3.93139649.01804555 4.79507767.02956122 9.59015231.0390625 14.3852539.00504124 2.07878117.0118741 4.15755878.02050781 6.23632813.01207477 2.98104734.01779078 5.96204798.02221679 8.94311523.00516129.93541123.01032258 1.87082245.01564026 2.83457947.0001133 1.29122521.0001133 1.29122521.00022889 2.60853577.00222061.76166977.00444122 1.52333954.00672912 2.30809021-.12025452 1.7527008-.12025452 1.7527008-1.12025452 2.7527008h-10v-44h-12c-1-1-1-1-1.1328125-2.8125.00257813-.721875.00515625-1.44375.0078125-2.1875-.00257812-.721875-.00515625-1.44375-.0078125-2.1875.29145378-3.97748676 3.24877634-2.93649534 6.5567627-2.95144653zM528 265h10c.01981934.74161377.03963867 1.48322754.06005859 2.24731445.09517069 3.35542389.20488235 6.71021841.31494141 10.06518555.0309375 1.16724609.061875 2.33449219.09375 3.53710938.03867187 1.11826171.07734375 2.23652343.1171875 3.38867187.0314209 1.03165283.0628418 2.06330566.09521484 3.1262207C538.82674629 290.22843236 538.82674629 290.22843236 541 293c2.20725073.36362818 2.20725073.36362818 4.625.1875.81726563-.02707031 1.63453125-.05414063 2.4765625-.08203125.93972656-.05220703.93972656-.05220703 1.8984375-.10546875.02505615-.77714355.0501123-1.55428711.07592773-2.35498047.11574023-3.50685022.23856579-7.01341698.36157227-10.52001953.03931641-1.22332031.07863281-2.44664062.11914062-3.70703125.04189454-1.16660156.08378907-2.33320313.12695313-3.53515625.03665771-1.07878418.07331543-2.15756836.11108398-3.26904297C551 267 551 267 552 265h9c.08719631 4.56237931.14045922 9.12454386.1875 13.6875.02513672 1.29357422.05027344 2.58714844.07617188 3.91992188.00966796 1.24716796.01933593 2.49433593.02929687 3.77929687.01571045 1.14686279.0314209 2.29372559.04760742 3.4753418C560.82573506 294.60561099 558.99325443 297.10607101 555.5 300.25c-5.06740153 3.54718107-10.52222551 3.45950393-16.5 2.75-4.59405052-1.67124513-7.18384496-3.64036414-9.70703125-7.84375-2.21240465-5.59275315-1.60616249-11.68614406-1.48046875-17.59375.02030273-1.81274414.02030273-1.81274414.04101562-3.66210938.03518492-2.96726144.08441742-5.93358999.14648438-8.90039062zM648 264c1.0326802 2.78823655 1.04509293 3.8677274.0625 6.75L647 273l-9 1c-1.01614399 3.04843198-1.18280182 5.31191238-1.28125 8.5078125-.03738281 1.06863281-.07476563 2.13726562-.11328125 3.23828125-.07055612 2.26040908-.14086695 4.52082582-.2109375 6.78125-.03738281 1.06605469-.07476563 2.13210938-.11328125 3.23046875-.04543945 1.47170654-.04543945 1.47170654-.09179688 2.97314453C636 301 636 301 635 302h-9v-37c7 0 7 0 9 2l2-1.5c3.96633241-1.98316621 6.60303262-1.72357461 11-1.5zM569 265h10v37h-10v-37z" fill="#fff"/><path d="M503 273c3.74502983 1.48059319 4.85739738 2.7607956 6.9375 6.25 1.27842126 4.51207503.98608449 6.50208426-.9375 10.75-2.1516821 2.46810594-3.68402403 3.74159986-6.9296875 4.37890625-3.75678969.21973676-5.67598426-.13888036-8.9453125-2.12890625-3.24431699-3.43515916-4.14997233-4.87652203-4.0625-9.6875 1.10809763-4.21077101 2.62386458-5.81460722 5.9375-8.5625 2.82001327-1.41000664 4.87007255-1.24548451 8-1zM715 273c2.92483867 1.82547936 5.43429205 3.86858411 7 7 .50698467 5.15434412.50698467 5.15434412 0 8-2.4375 2.9375-2.4375 2.9375-5 5l-1 1c-4.94895634.5032837-7.08032663.53508269-11.4375-2-2.73919053-3.20685721-3.57515832-4.88823275-3.80078125-9.00390625C701.17238187 279.55594862 702.7569062 277.54621458 705 275c3.20407303-2.34965355 6.10274765-2.54561533 10-2z"/><path d="M575.0625 250.25C578 251 578 251 580 253c.33015665 3.10347254.50531294 5.15781176-1.125 7.875-2.78606042 1.67163625-4.69488862 1.58876624-7.875 1.125-1.9375-1.625-1.9375-1.625-3-4 .125-3.125.125-3.125 1-6 3-2 3-2 6.0625-1.75z" fill="#fff"/><path d="M675 287c-.24524913 3.67873693-.36924 5.44132685-3.1875 7.9375-3.38150527 1.27745755-5.35317716.94744305-8.8125.0625-.6875-2.3125-.6875-2.3125-1-5 3.45503898-4.83705457 7.68054577-3.90330355 13-3zM763 274l2 4h-15c2-4 2-4 4.25-5.375 3.60227184-.81869815 5.45491307-.23593139 8.75 1.375z"/></svg>